<?xml version="1.0" standalone="no"?>
<!DOCTYPE svg PUBLIC "-//W3C//DTD SVG 20010904//EN"
 "http://www.w3.org/TR/2001/REC-SVG-20010904/DTD/svg10.dtd">
<svg version="1.0" xmlns="http://www.w3.org/2000/svg"
 width="637.000000pt" height="392.000000pt" viewBox="0 0 637.000000 392.000000"
 preserveAspectRatio="xMidYMid meet">
<metadata>
Created by potrace 1.16, written by Peter Selinger 2001-2019
</metadata>
<g transform="translate(0.000000,392.000000) scale(0.100000,-0.100000)"
fill="#000000" stroke="none">
<path d="M2360 1984 l0 -145 43 3 c39 3 42 5 45 34 3 30 4 30 80 41 93 14 122
39 122 105 0 34 -6 46 -36 74 l-35 34 -110 0 -109 0 0 -146z"/>
<path d="M2670 2096 c0 -28 4 -35 23 -38 20 -3 22 -9 25 -70 3 -67 3 -68 -23
-68 -23 0 -25 -4 -25 -40 l0 -41 98 3 97 3 0 35 c0 29 -4 36 -22 38 -21 3 -23
8 -23 73 0 67 1 69 25 69 22 0 25 4 25 35 l0 35 -100 0 -100 0 0 -34z"/>
<path d="M2926 2059 l46 -71 -38 -56 c-22 -32 -42 -58 -46 -60 -5 -2 -8 -10
-8 -18 0 -10 13 -14 48 -14 43 0 50 4 83 41 l36 41 22 -35 c25 -41 37 -47 97
-47 l44 0 -22 34 c-13 19 -36 53 -51 75 l-29 40 41 60 c23 33 41 65 41 70 0
17 -96 13 -110 -4 -7 -8 -9 -15 -5 -15 5 0 0 -9 -9 -19 -22 -24 -37 -19 -60
19 -16 27 -22 30 -71 30 l-55 0 46 -71z"/>
<path d="M3230 1985 l0 -145 135 0 135 0 0 40 0 40 -84 0 c-65 0 -85 3 -90 15
-4 12 7 15 65 15 l70 0 -3 38 -3 37 -62 3 c-47 2 -63 7 -63 17 0 12 17 15 85
15 l85 0 0 35 0 35 -135 0 -135 0 0 -145z"/>
<path d="M3545 2108 c-3 -13 -4 -77 -3 -143 l3 -120 128 -3 128 -3 -3 38 -3
38 -82 3 -83 3 0 104 0 105 -40 0 c-33 0 -41 -4 -45 -22z"/>
<path d="M3832 1988 l3 -143 43 -3 42 -3 1 73 0 73 21 -45 c45 -99 41 -95 84
-98 43 -3 43 -3 91 113 5 14 9 -1 11 -47 l3 -68 44 0 45 0 0 145 0 145 -60 0
c-47 0 -60 -3 -60 -15 0 -8 -4 -15 -10 -15 -5 0 -9 -3 -8 -7 1 -8 -17 -52 -46
-115 -12 -28 -13 -27 -48 60 l-36 87 -61 3 -62 3 3 -143z"/>
<path d="M4364 2118 c-10 -13 -26 -47 -49 -103 -7 -16 -22 -50 -34 -73 -11
-24 -21 -50 -21 -57 0 -7 -7 -16 -16 -19 -28 -11 -4 -26 41 -26 36 0 48 5 61
25 14 22 23 25 74 25 51 0 60 -3 74 -25 13 -19 25 -25 55 -25 21 0 40 3 44 6
6 6 -3 32 -36 104 -12 25 -33 74 -47 110 l-27 65 -55 3 c-36 2 -58 -1 -64 -10z"/>
<path d="M4620 1985 l0 -145 44 0 45 0 3 48 c3 46 4 47 36 49 30 1 37 -4 64
-48 30 -47 33 -49 76 -49 43 0 44 1 37 28 -3 15 -17 43 -30 63 l-24 37 25 21
c34 30 31 66 -10 107 l-34 34 -116 0 -116 0 0 -145z"/>
<path d="M4970 1985 l0 -145 45 0 45 0 0 55 c0 52 1 55 25 55 20 0 33 -12 60
-55 33 -51 38 -55 75 -55 21 0 42 4 45 10 7 11 -30 87 -57 116 -19 22 -19 22
16 77 49 76 48 87 -11 87 -47 0 -49 -1 -73 -48 -19 -36 -31 -48 -52 -50 -27
-3 -28 -2 -28 47 l0 51 -45 0 -45 0 0 -145z"/>
<path d="M5307 2123 c-4 -3 -7 -69 -7 -145 l0 -138 141 0 140 0 -3 38 -3 37
-92 3 c-74 2 -93 6 -93 17 0 12 15 15 71 15 l70 0 -3 38 -3 37 -68 3 c-48 2
-67 7 -64 15 2 8 34 13 92 15 56 2 92 7 97 15 6 9 8 9 8 0 0 -9 17 -13 50 -13
l50 0 0 -111 0 -110 48 3 47 3 3 108 3 107 44 0 c45 0 45 0 45 35 l0 35 -283
0 c-156 0 -287 -3 -290 -7z"/>
</g>
</svg>
